<?xml version="1.0" standalone="no"?>
<!DOCTYPE svg PUBLIC "-//W3C//DTD SVG 20010904//EN"
 "http://www.w3.org/TR/2001/REC-SVG-20010904/DTD/svg10.dtd">
<svg version="1.0" xmlns="http://www.w3.org/2000/svg"
 width="512.000000pt" height="512.000000pt" viewBox="0 0 512.000000 512.000000"
 preserveAspectRatio="xMidYMid meet">

<g transform="translate(0.000000,512.000000) scale(0.100000,-0.100000)"
fill="#000000" stroke="none">
<path d="M2457 5109 c-73 -17 -152 -63 -213 -123 -51 -52 -137 -186 -552 -867
l-492 -806 -37 -7 c-96 -16 -225 -110 -280 -204 -109 -186 -73 -421 88 -566
91 -82 195 -116 354 -116 l95 0 0 -79 c0 -73 -2 -83 -34 -130 -60 -89 -78
-152 -84 -288 -7 -184 24 -358 93 -529 l33 -83 -26 -17 c-108 -70 -219 -201
-281 -334 -72 -155 -74 -167 -78 -530 l-4 -325 23 -35 c51 -76 -72 -70 1498
-70 1570 0 1447 -6 1498 70 l23 35 -4 325 c-4 370 -6 379 -87 545 -58 118
-142 223 -233 290 l-64 48 33 82 c68 170 99 345 92 528 -6 136 -24 199 -84
288 -32 47 -34 57 -34 130 l0 79 95 0 c115 0 182 13 258 52 232 116 316 405
184 630 -55 94 -184 188 -280 204 l-37 7 -492 806 c-534 876 -548 897 -669
954 -96 45 -206 59 -302 36z m178 -312 c36 -20 83 -93 483 -747 l443 -725
-501 -3 c-275 -1 -725 -1 -1000 0 l-501 3 443 725 c400 654 447 727 483 747
51 29 99 29 150 0z m-1215 -1927 l0 -150 -88 0 c-71 0 -96 4 -132 23 -57 29
-83 75 -77 140 9 99 65 137 205 137 l92 0 0 -150z m1980 -134 l0 -283 -52 13
c-77 20 -1499 20 -1576 0 l-52 -13 0 283 0 284 840 0 840 0 0 -284z m519 266
c48 -24 73 -62 78 -119 6 -65 -20 -111 -77 -140 -36 -19 -61 -23 -132 -23
l-88 0 0 150 0 150 93 0 c68 0 101 -5 126 -18z m-567 -849 c62 -29 127 -89
149 -138 14 -29 19 -65 19 -131 0 -288 -116 -552 -344 -779 -142 -141 -314
-249 -528 -331 l-88 -34 -88 34 c-539 208 -872 631 -872 1108 0 126 33 191
128 250 77 47 73 47 847 45 727 -2 730 -2 777 -24z m-1635 -1241 c155 -155
275 -243 460 -335 132 -67 330 -137 383 -137 65 0 302 87 430 158 180 100 301
193 443 342 91 96 108 110 125 101 35 -19 127 -126 159 -186 53 -100 63 -160
63 -369 l0 -186 -1220 0 -1220 0 0 188 c0 210 9 265 63 366 28 54 151 196 170
196 3 0 68 -62 144 -138z"/>
<path d="M2305 1881 c-50 -30 -68 -58 -73 -111 -6 -65 11 -105 62 -141 131
-96 401 -96 532 0 51 36 68 76 62 141 -11 110 -116 160 -226 108 -63 -29 -141
-29 -206 0 -59 27 -111 28 -151 3z"/>
</g>
</svg>
